# xmcd
#
# Track frame offsets: 
#        150
#        16142
#        30495
#        44487
#        64515
#        80542
#        93180
#        107567
#        122317
#        132822
#        143490
#        156550
#        169402
#        181740
#        194062
#        204627
#        217520
#        231350
#        244125
#        256465
#        269502
#        281427
#        293800
#        310767
#        325345
#        338942
#
# Disc length: 4750 seconds
#
# Revision: 3
# Processed by: cddbd v1.5.2PL0 Copyright (c) Steve Scherf et al.
# Submitted via: ExactAudioCopy v1.0b3
#
DISCID=74128c1a
DTITLE=Various Artist - Country Ballads [Disk 2]
DYEAR=2003
DGENRE=Country
TTITLE0=Twain, Shania - You're Still The One
TTITLE1=Cassidy, Eva - It Doesn't Matter Anymore
TTITLE2=Costello, Elvis - A Good Year For The Roses
TTITLE3=Lonestar - Amazed
TTITLE4=Nitty Gritty Dirt Band - Mr. Bojangles
TTITLE5=Rogers, Kenny - Ruby Don't Take Your Love To Town
TTITLE6=Riley, Jeannie C - Harper Valley PTA
TTITLE7=Lynne, Shelby - Lonesome
TTITLE8=Kristofferson, Kris - Help Me Make It Through The Night
TTITLE9=Everly Brothers, The - Bye Bye Love
TTITLE10=Stevens, Ray - Misty
TTITLE11=Anderson, Lynn - Rose Garden
TTITLE12=Campbell, Glen and Rita Coolidge - Somethin' 'Bout You Baby I L
TTITLE12=ike
TTITLE13=Spears, Billie Jo - What I've Got In Mind
TTITLE14=Van Dyke, Leroy - Walk On By
TTITLE15=Gentry, Bobby - I'll Never Fall In Love Again
TTITLE16=Campbell, Glen - Wichita Lineman
TTITLE17=Young, Faron - Your Cheatin' Heart
TTITLE18=Bare, Bobby - Green Green Grass Of Home
TTITLE19=Locklin, Hank - Please Help Me, I'm Falling
TTITLE20=Arnold, Eddy - Make The World Go Away
TTITLE21=Reeves, Jim - I Love You Because
TTITLE22=Price, Ray - For The Good Times
TTITLE23=Dr. Hook - A Little Bit More
TTITLE24=Nelson, Willie - Funny How Time Slips Away
TTITLE25=Rogers, Kenny - Lady
EXTD=CDDBSort:various,country_ballads_greatest_country_love_songs_in_w
EXTD=orld_ever_disk_2_of_2 - YEAR: 2003
EXTT0=
EXTT1=
EXTT2=
EXTT3=
EXTT4=
EXTT5=
EXTT6=
EXTT7=
EXTT8=
EXTT9=
EXTT10=
EXTT11=
EXTT12=
EXTT13=
EXTT14=
EXTT15=
EXTT16=
EXTT17=
EXTT18=
EXTT19=
EXTT20=
EXTT21=
EXTT22=
EXTT23=
EXTT24=
EXTT25=
PLAYORDER=
